<svg width="90" height="90" viewBox="0 0 90 90" fill="none" xmlns="http://www.w3.org/2000/svg">
<path d="M90 45C90 69.8528 69.8528 90 45 90C20.1472 90 0 69.8528 0 45C0 20.1472 20.1472 0 45 0C69.8528 0 90 20.1472 90 45Z" fill="#FDE726" fill-opacity="0.7"/>
<path d="M63.2457 55.0155C62.6398 55.0155 62.149 55.5064 62.149 56.1122V74.2041C62.149 77.8447 59.187 80.8066 55.5464 80.8066H26.2297C22.5891 80.8066 19.6271 77.8447 19.6271 74.2041V16.7959C19.6271 13.1554 22.5891 10.1934 26.2297 10.1934H55.5463C59.1869 10.1934 62.1488 13.1554 62.1488 16.7959V23.2442C62.1488 23.85 62.6397 24.3409 63.2455 24.3409C63.8513 24.3409 64.3422 23.85 64.3422 23.2442V16.7959C64.3424 11.9458 60.3966 8 55.5464 8H26.2297C21.3795 8 17.4337 11.9458 17.4337 16.7959V74.2041C17.4337 79.0542 21.3795 83 26.2297 83H55.5463C60.3964 83 64.3422 79.0542 64.3422 74.2041V56.1122C64.3424 55.5066 63.8515 55.0155 63.2457 55.0155Z" fill="#006B38"/>
<path d="M22.9168 26.0038C22.3109 26.0038 21.8201 26.4947 21.8201 27.1005V74.2039C21.8201 76.6352 23.7981 78.6132 26.2294 78.6132H55.546C57.9773 78.6132 59.9551 76.6353 59.9551 74.204V58.3774C59.9551 57.7716 59.4642 57.2807 58.8584 57.2807C58.2526 57.2807 57.7617 57.7716 57.7617 58.3774V74.204C57.7617 75.4257 56.7677 76.4198 55.546 76.4198H26.2294C25.0075 76.4198 24.0135 75.4258 24.0135 74.2039V27.1005C24.0135 26.4947 23.5226 26.0038 22.9168 26.0038Z" fill="#006B38"/>
<path d="M51.6294 17.1393L53.2888 14.5802H55.546C56.7678 14.5802 57.7619 15.5742 57.7619 16.7961V23.2443C57.7619 23.8501 58.2528 24.3409 58.8586 24.3409C59.4644 24.3409 59.9553 23.8501 59.9553 23.2443V16.7961C59.9553 14.3648 57.9773 12.3868 55.546 12.3868H53.1892C52.5052 12.3868 51.8748 12.7296 51.5027 13.3034L49.7892 15.9457C49.7705 15.9745 49.739 15.9916 49.705 15.9916H32.0707C32.0366 15.9916 32.0052 15.9745 31.9866 15.9458L30.2731 13.3038C29.9011 12.7297 29.2704 12.3868 28.5862 12.3868H26.2294C23.7981 12.3868 21.8201 14.3648 21.8201 16.7961V22.4268C21.8201 23.0327 22.3109 23.5235 22.9168 23.5235C23.5226 23.5235 24.0135 23.0327 24.0135 22.4268V16.7961C24.0135 15.5742 25.0075 14.5802 26.2294 14.5802H28.4865L30.1462 17.1392C30.5707 17.7941 31.2901 18.185 32.0707 18.185H49.705C50.4851 18.185 51.2044 17.7941 51.6294 17.1393Z" fill="#006B38"/>
<path d="M46.2254 14.2878C46.8312 14.2878 47.3221 13.7969 47.3221 13.1911C47.3221 12.5852 46.8312 12.0944 46.2254 12.0944H35.4382C34.8324 12.0944 34.3416 12.5852 34.3416 13.1911C34.3416 13.7969 34.8324 14.2878 35.4382 14.2878H46.2254Z" fill="#006B38"/>
<path d="M82.8086 26.5343H81.9803C81.3744 26.5343 80.8836 27.0252 80.8836 27.631C80.8836 28.2368 81.3744 28.7277 81.9803 28.7277H82.8086C84.2225 28.7277 85.3727 29.8779 85.3727 31.2918V47.8904C85.3727 49.3041 84.2225 50.4543 82.8086 50.4543H60.7523C60.3468 50.4543 59.9744 50.678 59.784 51.0361L58.8793 52.7379L58.0209 51.0532C57.8338 50.6856 57.4562 50.4543 57.0437 50.4543H52.4025C50.9886 50.4543 49.8384 49.3041 49.8384 47.8904V38.749C49.8384 38.1432 49.3475 37.6523 48.7417 37.6523C48.1359 37.6523 47.645 38.1432 47.645 38.749V47.8904C47.645 50.5135 49.7792 52.6477 52.4025 52.6477H56.3717L57.042 53.9634C57.392 54.6501 58.0881 55.0811 58.859 55.0876C58.8651 55.0876 58.8711 55.0878 58.8772 55.0878C59.6407 55.0876 60.3361 54.6704 60.695 53.9952L61.4113 52.6476H82.8086C85.4318 52.6476 87.5661 50.5134 87.5661 47.8902V31.2918C87.5661 28.6686 85.4319 26.5343 82.8086 26.5343Z" fill="#006B38"/>
<path d="M47.645 31.2917V34.0752C47.645 34.681 48.1359 35.1719 48.7417 35.1719C49.3475 35.1719 49.8384 34.681 49.8384 34.0752V31.2917C49.8384 29.8779 50.9886 28.7277 52.4025 28.7277H77.3064C77.9122 28.7277 78.4031 28.2368 78.4031 27.631C78.4031 27.0252 77.9122 26.5343 77.3064 26.5343H52.4026C49.7793 26.5343 47.645 28.6685 47.645 31.2917Z" fill="#006B38"/>
<path d="M50.1528 66.5279L49.5383 61.9858C49.024 58.1866 45.7452 55.3214 41.9112 55.3214C38.0773 55.3214 34.7983 58.1866 34.2842 61.9858L33.6697 66.5279L33.3226 67.1489C32.9555 67.8055 32.9637 68.585 33.3444 69.234C33.725 69.8829 34.4014 70.2703 35.1538 70.2703H38.3921V70.7379C38.3921 72.6785 39.9707 74.257 41.9112 74.257C43.8516 74.257 45.4302 72.6783 45.4302 70.7379V70.2703H48.6686C49.4209 70.2703 50.0973 69.8829 50.478 69.234C50.8586 68.585 50.8668 67.8055 50.4998 67.1489L50.1528 66.5279ZM43.237 70.7379C43.237 71.4689 42.6423 72.0636 41.9113 72.0636C41.1803 72.0636 40.5856 71.4689 40.5856 70.7379V70.2703H43.2371V70.7379H43.237ZM44.3337 68.0769H39.4888H35.3167L35.6857 67.4162C35.7528 67.2962 35.7967 67.1644 35.8153 67.0283L36.4578 62.2801C36.8254 59.5635 39.17 57.5148 41.9113 57.5148C44.6526 57.5148 46.9971 59.5635 47.3647 62.2801L48.0072 67.0283C48.0256 67.1646 48.0696 67.2962 48.1367 67.4162L48.5058 68.0769H44.3337Z" fill="#006B38"/>
<path d="M34.6825 53.2444C32.6417 53.2444 30.9813 54.9047 30.9813 56.9456C30.9813 57.5514 31.4722 58.0423 32.078 58.0423C32.6838 58.0423 33.1747 57.5514 33.1747 56.9456C33.1747 56.1141 33.851 55.4378 34.6825 55.4378C35.2883 55.4378 35.7792 54.947 35.7792 54.3411C35.7792 53.7353 35.2883 53.2444 34.6825 53.2444Z" fill="#006B38"/>
<path d="M34.6824 48.5066C30.0291 48.5066 26.2433 52.2924 26.2433 56.9456C26.2433 57.5514 26.7342 58.0423 27.34 58.0423C27.9458 58.0423 28.4367 57.5514 28.4367 56.9456C28.4367 53.5017 31.2385 50.7 34.6824 50.7C35.2883 50.7 35.7791 50.2091 35.7791 49.6033C35.7791 48.9975 35.2883 48.5066 34.6824 48.5066Z" fill="#006B38"/>
<path d="M75.5395 37.0425L78.2494 36.153C78.4293 36.094 78.5857 35.9807 78.6966 35.8293C78.8074 35.6778 78.8671 35.4959 78.8671 35.3092V31.8627C78.8671 31.6268 78.7719 31.4006 78.6025 31.2338C78.4331 31.067 78.2033 30.9733 77.9637 30.9733C77.7242 30.9733 77.4944 31.067 77.325 31.2338C77.1556 31.4006 77.0604 31.6268 77.0604 31.8627V34.6677L75.1849 35.2836C75.0801 34.5857 74.8543 33.9107 74.5176 33.288C74.5483 33.2592 74.5773 33.2288 74.6045 33.1968L75.9595 31.5291C76.0336 31.4379 76.0888 31.3332 76.1218 31.2209C76.1549 31.1087 76.1651 30.9911 76.152 30.875C76.1389 30.7588 76.1027 30.6464 76.0455 30.544C75.9882 30.4417 75.911 30.3514 75.8184 30.2784C75.7257 30.2054 75.6193 30.1511 75.5053 30.1186C75.3913 30.086 75.2719 30.0759 75.154 30.0888C75.036 30.1017 74.9218 30.1374 74.8178 30.1938C74.7139 30.2501 74.6222 30.3261 74.5481 30.4174L73.4144 31.8138C72.8279 31.2301 72.1296 30.7668 71.3599 30.4507C70.5902 30.1347 69.7645 29.9722 68.9305 29.9727H67.1239C66.292 29.9723 65.4682 30.134 64.7 30.4485C63.9318 30.7629 63.2344 31.2239 62.6479 31.8049L61.5233 30.3284C61.4521 30.235 61.363 30.1563 61.2609 30.0968C61.1588 30.0372 61.0458 29.9981 60.9284 29.9816C60.811 29.9651 60.6914 29.9715 60.5765 30.0005C60.4616 30.0295 60.3536 30.0805 60.2587 30.1505C60.1638 30.2206 60.0838 30.3084 60.0234 30.4089C59.9629 30.5094 59.9232 30.6207 59.9064 30.7363C59.8896 30.8519 59.8962 30.9697 59.9256 31.0828C59.955 31.196 60.0068 31.3023 60.078 31.3957L61.433 33.1746C61.4643 33.2148 61.4991 33.2524 61.5369 33.2869C61.2008 33.9091 60.9751 34.5833 60.8695 35.2803L59.1069 34.6766V31.7515C59.1069 31.5156 59.0118 31.2894 58.8424 31.1226C58.673 30.9558 58.4432 30.8621 58.2036 30.8621C57.964 30.8621 57.7343 30.9558 57.5649 31.1226C57.3955 31.2894 57.3003 31.5156 57.3003 31.7515V35.3092C57.3003 35.4939 57.3587 35.674 57.4674 35.8246C57.576 35.9752 57.7295 36.0888 57.9066 36.1497L60.5037 37.0391C60.5992 37.0715 60.6996 37.0881 60.8007 37.088V38.8669H58.0907C57.8511 38.8669 57.6214 38.9606 57.452 39.1274C57.2825 39.2942 57.1874 39.5204 57.1874 39.7563C57.1874 39.9922 57.2825 40.2184 57.452 40.3852C57.6214 40.552 57.8511 40.6457 58.0907 40.6457H60.8007V43.314C60.7151 43.3139 60.6299 43.3259 60.5477 43.3496L57.8378 44.1278C57.6501 44.1817 57.4853 44.2941 57.368 44.448C57.2508 44.602 57.1874 44.7892 57.1874 44.9817V47.6499C57.1874 47.8858 57.2825 48.1121 57.452 48.2789C57.6214 48.4457 57.8511 48.5394 58.0907 48.5394C58.3303 48.5394 58.56 48.4457 58.7294 48.2789C58.8988 48.1121 58.994 47.8858 58.994 47.6499V45.6487L61.0536 45.0573H61.0547C61.4391 46.3495 62.2381 47.4845 63.3321 48.2926C64.426 49.1006 65.7563 49.5382 67.1239 49.54H68.9305C70.2981 49.538 71.6283 49.1004 72.7222 48.2924C73.8162 47.4844 74.6152 46.3494 74.9997 45.0573L77.0604 45.7343V47.7611C77.0604 47.997 77.1556 48.2232 77.325 48.39C77.4944 48.5568 77.7242 48.6505 77.9637 48.6505C78.2033 48.6505 78.4331 48.5568 78.6025 48.39C78.7719 48.2232 78.8671 47.997 78.8671 47.7611V45.0928C78.8671 44.9062 78.8074 44.7242 78.6966 44.5728C78.5857 44.4213 78.4293 44.308 78.2494 44.249L75.5395 43.3596C75.4474 43.3293 75.3509 43.3139 75.2538 43.314V40.6457H77.9637C78.2033 40.6457 78.4331 40.552 78.6025 40.3852C78.7719 40.2184 78.8671 39.9922 78.8671 39.7563C78.8671 39.5204 78.7719 39.2942 78.6025 39.1274C78.4331 38.9606 78.2033 38.8669 77.9637 38.8669H75.2538V37.088C75.3509 37.0881 75.4474 37.0727 75.5395 37.0425ZM67.1239 47.7611C65.9264 47.7599 64.7783 47.291 63.9315 46.4573C63.0847 45.6235 62.6085 44.4931 62.6073 43.314V37.9775H67.1239V47.7611ZM73.4471 43.314C73.4459 44.4931 72.9697 45.6235 72.1229 46.4573C71.2762 47.291 70.1281 47.7599 68.9305 47.7611V37.9775H73.4471V43.314ZM62.6073 36.1986C62.6085 35.0195 63.0847 33.8891 63.9315 33.0553C64.7783 32.2216 65.9264 31.7527 67.1239 31.7515H68.9305C70.1281 31.7527 71.2762 32.2216 72.1229 33.0553C72.9697 33.8891 73.4459 35.0195 73.4471 36.1986H62.6073Z" fill="#006B38"/>
</svg>
