<svg width="90" height="90" viewBox="0 0 90 90" fill="none" xmlns="http://www.w3.org/2000/svg">
<path d="M90 45C90 69.8528 69.8528 90 45 90C20.1472 90 0 69.8528 0 45C0 20.1472 20.1472 0 45 0C69.8528 0 90 20.1472 90 45Z" fill="#FDE726" fill-opacity="0.7"/>
<g clip-path="url(#clip0)">
<path d="M43.9311 81.0088L28.6186 80.8779C25.0475 80.8474 22.167 77.9174 22.1976 74.3463L22.2419 69.1543C22.2471 68.5472 21.7593 68.0508 21.1521 68.0457C20.5449 68.0405 20.0486 68.5284 20.0435 69.1355L19.9991 74.3275C19.9582 79.1108 23.8165 83.0355 28.5998 83.0764L43.9123 83.2073C44.5195 83.2125 45.0157 82.7245 45.0209 82.1175C45.0261 81.5104 44.5382 81.014 43.9311 81.0088Z" fill="#006B38"/>
<path d="M21.1734 65.5593C21.7806 65.5645 22.2768 65.0766 22.282 64.4695L22.6899 16.7527C22.7204 13.1817 25.6504 10.3013 29.2215 10.3318L59.147 10.5876C62.7181 10.6182 65.5986 13.5482 65.5681 17.1192L65.4066 36.0126C65.4014 36.6197 65.8892 37.116 66.4964 37.1212C67.1036 37.1264 67.5999 36.6385 67.6051 36.0314L67.7665 17.138C67.8074 12.3547 63.9491 8.43005 59.1658 8.38916L29.2403 8.13337C24.4571 8.09248 20.5323 11.9507 20.4914 16.7339L20.0835 64.4507C20.0783 65.0578 20.5662 65.5541 21.1734 65.5593Z" fill="#006B38"/>
<path d="M25.9163 25.1196C25.309 25.1144 24.8128 25.6023 24.8076 26.2094L24.396 74.3651C24.3758 76.7239 26.2786 78.6593 28.6374 78.6795L38.9689 78.7678C39.5761 78.773 40.0723 78.285 40.0775 77.6779C40.0827 77.0709 39.5949 76.5745 38.9876 76.5693L28.6562 76.481C27.5096 76.4712 26.5847 75.5305 26.5945 74.3839L27.0061 26.2282C27.0113 25.621 26.5233 25.1248 25.9163 25.1196Z" fill="#006B38"/>
<path d="M62.1078 36.1314C62.715 36.1366 63.2112 35.6486 63.2164 35.0416L63.3698 17.1004C63.3899 14.7416 61.4872 12.8063 59.1284 12.7861L55.1924 12.7525C54.2201 12.7441 53.3338 13.273 52.8791 14.1326L52.1678 15.4781C52.1124 15.5829 52.0044 15.6475 51.8857 15.6465L36.5218 15.5151C36.403 15.5141 36.2962 15.4478 36.2426 15.342L35.5543 13.9845C35.1145 13.1173 34.2372 12.5733 33.2649 12.565L29.2027 12.5303C26.844 12.5101 24.9086 14.4127 24.8885 16.7715L24.8479 21.5248C24.8427 22.1318 25.3305 22.6282 25.9377 22.6334C26.5449 22.6386 27.0411 22.1506 27.0463 21.5436L27.087 16.7903C27.0968 15.6439 28.0375 14.719 29.184 14.7288L33.2462 14.7635C33.3938 14.7648 33.5268 14.8474 33.5935 14.9789L34.2817 16.3362C34.7083 17.1778 35.5595 17.7055 36.503 17.7136L51.8668 17.8449C52.8103 17.853 53.6703 17.3399 54.1113 16.5057L54.8224 15.1605C54.8915 15.03 55.0259 14.9497 55.1735 14.9509L59.1095 14.9846C60.256 14.9944 61.1809 15.9351 61.1711 17.0817L61.0178 35.0228C61.0127 35.6299 61.5006 36.1262 62.1078 36.1314Z" fill="#006B38"/>
<path d="M75.0918 45.2002C74.6751 44.7587 73.9794 44.7387 73.5379 45.1553C73.0964 45.5719 73.0762 46.2677 73.493 46.7092C77.133 50.5664 79.1126 55.6114 79.0673 60.9153C78.9709 72.1895 69.7202 81.2834 58.446 81.187C47.1719 81.0907 38.0781 71.8399 38.1745 60.5658C38.2708 49.2916 47.5214 40.1978 58.7956 40.2942C62.8411 40.3288 66.7426 41.5425 70.0788 43.8041C70.5812 44.1446 71.2649 44.0135 71.6056 43.5111C71.9463 43.0086 71.8149 42.325 71.3124 41.9843C67.6164 39.4787 63.2946 38.134 58.8144 38.0957C46.3281 37.989 36.0827 48.0607 35.976 60.547C35.8693 73.0334 45.941 83.2788 58.4273 83.3855C70.9137 83.4922 81.159 73.4205 81.2658 60.9341C81.316 55.0599 79.1233 49.4722 75.0918 45.2002Z" fill="#006B38"/>
<path d="M58.6894 52.7795C55.5985 52.7531 53.0624 55.2462 53.0359 58.3371L52.9957 63.0483C52.9693 66.1392 55.4624 68.6753 58.5533 68.7017C61.6443 68.7282 64.1804 66.235 64.2068 63.1441L64.2471 58.433C64.2735 55.3421 61.7804 52.806 58.6894 52.7795ZM62.0084 63.1253C61.9923 65.004 60.4507 66.5193 58.5721 66.5033C56.6934 66.4872 55.1781 64.9458 55.1941 63.0671L55.2344 58.3559C55.2505 56.4773 56.7919 54.962 58.6706 54.978C60.5492 54.9941 62.0647 56.5355 62.0486 58.4142L62.0084 63.1253Z" fill="#006B38"/>
<path d="M58.6581 56.4239C58.0509 56.4187 57.5546 56.9067 57.5494 57.5138L57.4968 63.6756C57.4916 64.2827 57.9794 64.7791 58.5866 64.7842C59.1938 64.7894 59.6901 64.3015 59.6952 63.6944L59.7479 57.5325C59.7531 56.9255 59.2653 56.4291 58.6581 56.4239Z" fill="#006B38"/>
<path d="M72.7931 52.9483L58.4648 52.9483L44.1365 52.9483C43.5519 52.9483 42.9912 53.0844 42.5778 53.3266C42.1644 53.5688 41.9321 53.8973 41.9321 54.2399C41.9321 54.5824 42.1644 54.911 42.5778 55.1532C42.9912 55.3954 43.5519 55.5315 44.1365 55.5315L72.7931 55.5315C73.3778 55.5315 73.9384 55.3954 74.3518 55.1532C74.7652 54.911 74.9975 54.5824 74.9975 54.2399C74.9975 53.8973 74.7652 53.5688 74.3518 53.3266C73.9384 53.0844 73.3778 52.9483 72.7931 52.9483Z" fill="#006B38"/>
<path d="M49.1652 59.6647L45.807 59.6647L42.4488 59.6647C42.3118 59.6647 42.1803 59.8008 42.0835 60.043C41.9866 60.2852 41.9321 60.6137 41.9321 60.9563C41.9321 61.2988 41.9866 61.6274 42.0835 61.8696C42.1803 62.1118 42.3118 62.2479 42.4488 62.2479L49.1652 62.2479C49.3022 62.2479 49.4336 62.1118 49.5305 61.8696C49.6274 61.6274 49.6818 61.2988 49.6818 60.9563C49.6818 60.6137 49.6274 60.2852 49.5305 60.043C49.4336 59.8008 49.3022 59.6647 49.1652 59.6647Z" fill="#006B38"/>
<path d="M74.9976 59.6647L71.6394 59.6647L68.2812 59.6647C68.1441 59.6647 68.0127 59.8008 67.9158 60.043C67.819 60.2852 67.7645 60.6137 67.7645 60.9563C67.7645 61.2988 67.819 61.6274 67.9158 61.8696C68.0127 62.1118 68.1441 62.2479 68.2812 62.2479L74.9976 62.2479C75.1346 62.2479 75.266 62.1118 75.3629 61.8696C75.4598 61.6274 75.5142 61.2988 75.5142 60.9563C75.5142 60.6137 75.4598 60.2852 75.3629 60.043C75.266 59.8008 75.1346 59.6647 74.9976 59.6647Z" fill="#006B38"/>
<path d="M72.7931 66.3811L58.4648 66.3811L44.1365 66.3811C43.5519 66.3811 42.9912 66.5172 42.5778 66.7594C42.1644 67.0016 41.9321 67.3301 41.9321 67.6727C41.9321 68.0152 42.1644 68.3438 42.5778 68.586C42.9912 68.8282 43.5519 68.9643 44.1365 68.9643L72.7931 68.9643C73.3778 68.9643 73.9384 68.8282 74.3518 68.586C74.7652 68.3438 74.9975 68.0152 74.9975 67.6727C74.9975 67.3301 74.7652 67.0016 74.3518 66.7594C73.9384 66.5172 73.3778 66.3811 72.7931 66.3811Z" fill="#006B38"/>
</g>
<defs>
<clipPath id="clip0">
<rect width="75" height="75" fill="white" transform="translate(13.6411 8) rotate(0.489731)"/>
</clipPath>
</defs>
</svg>
