<svg width="90" height="90" viewBox="0 0 90 90" fill="none" xmlns="http://www.w3.org/2000/svg">
<path d="M90 45C90 69.8528 69.8528 90 45 90C20.1472 90 0 69.8528 0 45C0 20.1472 20.1472 0 45 0C69.8528 0 90 20.1472 90 45Z" fill="#FDE726" fill-opacity="0.7"/>
<path d="M41.913 81.7472H26.6C23.0288 81.7472 20.1234 78.8419 20.1234 75.2707V70.0785C20.1234 69.4714 19.6313 68.9792 19.0241 68.9792C18.4168 68.9792 17.9248 69.4714 17.9248 70.0785V75.2707C17.9248 80.0542 21.8165 83.9457 26.6 83.9457H41.913C42.5203 83.9457 43.0123 83.4536 43.0123 82.8465C43.0123 82.2394 42.5201 81.7472 41.913 81.7472Z" fill="#006B38"/>
<path d="M19.0244 66.4928C19.6317 66.4928 20.1237 66.0006 20.1237 65.3935V17.675C20.1237 14.1039 23.029 11.1985 26.6002 11.1985H56.5269C60.098 11.1985 63.0035 14.1039 63.0035 17.675V36.5691C63.0035 37.1762 63.4955 37.6684 64.1028 37.6684C64.71 37.6684 65.202 37.1762 65.202 36.5691V17.675C65.202 12.8916 61.3103 9 56.5269 9H26.6002C21.8169 9 17.9252 12.8916 17.9252 17.675V65.3935C17.9252 66.0006 18.4172 66.4928 19.0244 66.4928Z" fill="#006B38"/>
<path d="M23.4214 26.014C22.8142 26.014 22.3221 26.5062 22.3221 27.1133V75.2707C22.3221 77.6296 24.2413 79.5487 26.6002 79.5487H36.9321C37.5393 79.5487 38.0314 79.0565 38.0314 78.4494C38.0314 77.8423 37.5393 77.3501 36.9321 77.3501H26.6002C25.4536 77.3501 24.5207 76.4173 24.5207 75.2707V27.1133C24.5207 26.506 24.0285 26.014 23.4214 26.014Z" fill="#006B38"/>
<path d="M59.7056 36.7161C60.3128 36.7161 60.8048 36.2239 60.8048 35.6168V17.675C60.8048 15.3161 58.8856 13.3971 56.5267 13.3971H52.5906C51.6183 13.3971 50.7365 13.9335 50.2892 14.797L49.5894 16.1485C49.5349 16.2537 49.4275 16.3193 49.3088 16.3193H33.9443C33.8255 16.3193 33.7181 16.2539 33.6636 16.1485L32.9637 14.797C32.5165 13.9335 31.6346 13.3971 30.6623 13.3971H26.5999C24.2412 13.3971 22.3221 15.3161 22.3221 17.675V22.4284C22.3221 23.0355 22.8142 23.5277 23.4214 23.5277C24.0287 23.5277 24.5207 23.0355 24.5207 22.4284V17.675C24.5207 16.5286 25.4535 15.5956 26.6001 15.5956H30.6624C30.81 15.5956 30.9437 15.6771 31.0115 15.808L31.7113 17.1594C32.1451 17.9973 33.0008 18.5178 33.9443 18.5178H49.3086C50.2522 18.5178 51.1078 17.9973 51.5416 17.1594L52.2412 15.8082C52.3092 15.6771 52.4429 15.5956 52.5905 15.5956H56.5266C57.6732 15.5956 58.6061 16.5284 58.6061 17.675V35.6168C58.6063 36.2239 59.0983 36.7161 59.7056 36.7161Z" fill="#006B38"/>
<path d="M52.875 52.0938C51.4844 52.0938 50.1249 52.5061 48.9687 53.2787C47.8124 54.0513 46.9112 55.1495 46.379 56.4343C45.8468 57.7191 45.7076 59.1328 45.9789 60.4967C46.2502 61.8607 46.9198 63.1135 47.9032 64.0968C48.8865 65.0802 50.1393 65.7498 51.5033 66.0211C52.8672 66.2924 54.281 66.1532 55.5657 65.621C56.8505 65.0888 57.9487 64.1876 58.7213 63.0314C59.4939 61.8751 59.9063 60.5156 59.9063 59.125C59.9042 57.2608 59.1627 55.4736 57.8445 54.1555C56.5264 52.8373 54.7392 52.0958 52.875 52.0938ZM52.875 64.5938C51.7934 64.5938 50.7361 64.273 49.8367 63.6721C48.9374 63.0712 48.2365 62.2171 47.8225 61.2178C47.4086 60.2185 47.3003 59.1189 47.5113 58.0581C47.7223 56.9973 48.2432 56.0228 49.008 55.258C49.7728 54.4932 50.7473 53.9723 51.8081 53.7613C52.8689 53.5503 53.9685 53.6586 54.9678 54.0725C55.9671 54.4864 56.8212 55.1874 57.4221 56.0867C58.023 56.9861 58.3438 58.0434 58.3438 59.125C58.3421 60.5749 57.7654 61.965 56.7402 62.9902C55.715 64.0154 54.3249 64.5921 52.875 64.5938Z" fill="#006B38"/>
<path d="M78.9553 38.627L78.2337 38.328L78.8313 36.8839C79.1358 36.1207 79.1273 35.2683 78.8079 34.5113C78.4885 33.7542 77.8838 33.1535 77.1246 32.839C76.3655 32.5246 75.5131 32.5218 74.7519 32.8312C73.9907 33.1406 73.382 33.7374 73.0576 34.4923L72.4591 35.9362L71.7374 35.6372C71.6426 35.598 71.541 35.5777 71.4384 35.5777C71.3358 35.5777 71.2342 35.598 71.1394 35.6372C71.0446 35.6765 70.9585 35.734 70.886 35.8066C70.8134 35.8791 70.7559 35.9653 70.7166 36.0601L69.5208 38.9468C69.4415 39.1382 69.4415 39.3533 69.5208 39.5447C69.6001 39.7361 69.7521 39.8882 69.9436 39.9675L70.6662 40.2666L69.1713 43.8759L68.3188 45.9332C66.5924 43.9164 64.4906 42.2541 62.1304 41.0386C59.2681 39.566 56.0939 38.8025 52.875 38.8125C41.6747 38.8125 32.5625 47.9247 32.5625 59.125C32.5625 70.3253 41.6747 79.4375 52.875 79.4375C64.0753 79.4375 73.1875 70.3253 73.1875 59.125C73.1897 57.0019 72.8584 54.8916 72.2059 52.8713C72.2227 52.8357 72.2389 52.7995 72.254 52.7629L74.9444 46.2667L76.4394 42.6582L77.1613 42.9571C77.2561 42.9965 77.3577 43.0168 77.4603 43.0169C77.563 43.017 77.6646 42.9968 77.7594 42.9575C77.8542 42.9183 77.9404 42.8607 78.0129 42.7881C78.0855 42.7155 78.143 42.6293 78.1821 42.5344L79.378 39.6473C79.4572 39.4559 79.4571 39.2409 79.3778 39.0496C79.2986 38.8583 79.1466 38.7063 78.9553 38.627ZM74.5011 35.0901C74.577 34.8968 74.6907 34.7207 74.8355 34.5719C74.9803 34.4231 75.1533 34.3047 75.3443 34.2235C75.5354 34.1423 75.7408 34.1001 75.9484 34.0991C76.156 34.0982 76.3617 34.1387 76.5535 34.2182C76.7453 34.2977 76.9193 34.4146 77.0654 34.5621C77.2115 34.7096 77.3267 34.8847 77.4044 35.0772C77.482 35.2698 77.5205 35.4759 77.5176 35.6834C77.5147 35.891 77.4705 36.096 77.3875 36.2862L76.79 37.7297L73.9026 36.5337L74.5011 35.0901ZM67.6406 47.5693L66.4811 50.3675L62.6074 52.6038C61.3691 50.7617 59.636 49.3064 57.6074 48.4053L60.0178 41.7834C60.4902 41.9787 60.9565 42.1939 61.4168 42.4289C63.8369 43.6749 65.9598 45.4282 67.6406 47.5693ZM66.533 52.2842L66.0057 53.5574C65.8846 53.8423 65.8212 54.1484 65.8191 54.4579C65.817 54.7675 65.8762 55.0744 65.9934 55.3609C66.1105 55.6474 66.2832 55.9079 66.5016 56.1273C66.72 56.3467 66.9796 56.5206 67.2656 56.6391C67.5516 56.7576 67.8582 56.8183 68.1677 56.8177C68.4773 56.817 68.7836 56.755 69.0691 56.6354C69.3545 56.5157 69.6135 56.3406 69.8309 56.1203C70.0483 55.9 70.22 55.6388 70.3359 55.3518L70.864 54.0775C70.8863 54.0696 70.9082 54.0608 70.9302 54.0523C71.6165 56.5094 71.7968 59.0804 71.4601 61.6093L64.5254 60.3862C64.5707 59.9673 64.5935 59.5463 64.5937 59.125C64.5957 57.3324 64.1838 55.5635 63.3901 53.9561L66.4823 52.1708C66.4981 52.209 66.515 52.2468 66.533 52.2842ZM52.0937 70.8171V77.8575C48.2242 77.7 44.4997 76.3418 41.4371 73.9714L45.961 68.5808C47.7505 69.8953 49.8782 70.6712 52.0937 70.8171ZM53.6562 70.8171C55.8718 70.6712 57.9996 69.8953 59.7891 68.5808L64.313 73.9714C61.2504 76.3418 57.5258 77.7 53.6562 77.8575V70.8171ZM52.875 69.2813C50.8663 69.2813 48.9027 68.6856 47.2325 67.5696C45.5623 66.4536 44.2605 64.8675 43.4918 63.0116C42.7231 61.1558 42.522 59.1138 42.9139 57.1436C43.3058 55.1735 44.2731 53.3638 45.6934 51.9435C47.1138 50.5231 48.9235 49.5558 50.8936 49.1639C52.8637 48.772 54.9058 48.9732 56.7616 49.7419C58.6174 50.5106 60.2036 51.8123 61.3196 53.4825C62.4356 55.1527 63.0312 57.1163 63.0312 59.125C63.0282 61.8177 61.9572 64.3992 60.0532 66.3032C58.1492 68.2072 55.5677 69.2782 52.875 69.2813ZM58.55 41.2479L56.1397 47.8695C54.0071 47.2518 51.7429 47.2518 49.6103 47.8695L47.2019 41.2531C50.894 40.0841 54.8568 40.0823 58.55 41.2479ZM45.7342 41.7892L48.1425 48.4055C46.1139 49.3066 44.3808 50.7619 43.1425 52.604L37.0465 49.0847C39.1252 45.819 42.1583 43.272 45.7342 41.7892ZM36.2637 50.4369L42.36 53.9562C41.5663 55.5635 41.1543 57.3324 41.1562 59.125C41.1565 59.5463 41.1793 59.9673 41.2246 60.3862L34.2898 61.6093C34.1802 60.7857 34.1251 59.9558 34.125 59.125C34.1217 56.0983 34.8557 53.1163 36.2637 50.4369ZM34.5609 63.1485L41.4951 61.9248C42.0279 64.08 43.1617 66.0396 44.7646 67.5756L40.2405 72.9662C37.3795 70.3582 35.3956 66.9288 34.5609 63.1485ZM65.5095 72.9667L60.9853 67.5761C62.5883 66.0401 63.7221 64.0805 64.2549 61.9253L71.1891 63.1485C70.3545 66.9289 68.3706 70.3586 65.5095 72.9667ZM70.81 52.1659C70.7574 52.2923 70.6725 52.4027 70.5639 52.486C70.4552 52.5693 70.3266 52.6225 70.1909 52.6404C70.055 52.6584 69.9261 52.7117 69.8174 52.7952C69.7086 52.8786 69.6237 52.9893 69.5712 53.1159L68.8925 54.7536C68.8545 54.8502 68.7976 54.9383 68.7252 55.0127C68.6528 55.0871 68.5663 55.1463 68.4707 55.1869C68.3752 55.2275 68.2725 55.2486 68.1687 55.249C68.0649 55.2495 67.962 55.2292 67.8661 55.1894C67.7702 55.1497 67.6832 55.0912 67.6102 55.0174C67.5372 54.9436 67.4796 54.856 67.4408 54.7598C67.402 54.6635 67.3827 54.5604 67.3842 54.4566C67.3857 54.3528 67.4079 54.2503 67.4494 54.1552L68.1271 52.5186C68.1795 52.3919 68.1977 52.2536 68.1798 52.1177C68.1619 51.9818 68.1086 51.853 68.0252 51.7442C67.9418 51.6352 67.8885 51.5062 67.8705 51.3702C67.8526 51.2341 67.8707 51.0957 67.9229 50.9689L70.3155 45.1953L73.2019 46.3906L70.81 52.1659ZM73.7999 44.947L70.9133 43.7518L72.1093 40.8645L74.9959 42.0602L73.7999 44.947ZM77.0375 41.2149L71.2637 38.8229L71.8616 37.3793L77.6358 39.7711L77.0375 41.2149Z" fill="#006B38"/>
</svg>
