<svg width="71" height="36" viewBox="0 0 71 36" fill="none" xmlns="http://www.w3.org/2000/svg">
<path d="M18.3729 35.336C15.2049 35.336 12.2929 34.6 9.63694 33.128C6.98094 31.624 4.86894 29.56 3.30094 26.936C1.76494 24.28 0.996938 21.288 0.996938 17.96C0.996938 14.632 1.76494 11.656 3.30094 9.032C4.86894 6.376 6.98094 4.312 9.63694 2.84C12.2929 1.368 15.2049 0.631999 18.3729 0.631999C21.5729 0.631999 24.4849 1.368 27.1089 2.84C29.7649 4.312 31.8609 6.376 33.3969 9.032C34.9329 11.656 35.7009 14.632 35.7009 17.96C35.7009 21.288 34.9329 24.28 33.3969 26.936C31.8609 29.56 29.7649 31.624 27.1089 33.128C24.4529 34.6 21.5409 35.336 18.3729 35.336ZM18.3729 26.6C20.7729 26.6 22.6609 25.816 24.0369 24.248C25.4449 22.68 26.1489 20.584 26.1489 17.96C26.1489 15.272 25.4449 13.16 24.0369 11.624C22.6609 10.056 20.7729 9.272 18.3729 9.272C15.9409 9.272 14.0369 10.056 12.6609 11.624C11.2849 13.16 10.5969 15.272 10.5969 17.96C10.5969 20.616 11.2849 22.728 12.6609 24.296C14.0369 25.832 15.9409 26.6 18.3729 26.6ZM53.3222 1.16C56.8742 1.16 59.9782 1.88 62.6342 3.32C65.3222 4.728 67.3862 6.712 68.8262 9.272C70.2662 11.832 70.9862 14.76 70.9862 18.056C70.9862 21.32 70.2502 24.232 68.7782 26.792C67.3382 29.352 65.2742 31.368 62.5862 32.84C59.9302 34.28 56.8422 35 53.3222 35H39.9302V1.16H53.3222ZM52.6022 26.696C55.3542 26.696 57.5142 25.944 59.0822 24.44C60.6502 22.936 61.4342 20.808 61.4342 18.056C61.4342 15.272 60.6502 13.128 59.0822 11.624C57.5142 10.088 55.3542 9.32 52.6022 9.32H49.3382V26.696H52.6022Z" fill="url(#paint0_linear)"/>
<defs>
<linearGradient id="paint0_linear" x1="36" y1="-18" x2="36" y2="54" gradientUnits="userSpaceOnUse">
<stop offset="0.0885417" stop-color="#FDE726" stop-opacity="0.46"/>
<stop offset="0.552083" stop-color="#006B38"/>
<stop offset="0.9998" stop-color="#006B38" stop-opacity="0.0454545"/>
<stop offset="0.9999" stop-color="#006B38" stop-opacity="0"/>
<stop offset="1" stop-color="#006B38" stop-opacity="0.0454545"/>
<stop offset="1" stop-color="#006B38" stop-opacity="0.0454545"/>
<stop offset="1" stop-color="#006B38" stop-opacity="0.0454545"/>
</linearGradient>
</defs>
</svg>
